<svg xmlns="http://www.w3.org/2000/svg" viewBox="0 0 512 512" role="img" aria-label="Тёмная Каста">
  <rect width="512" height="512" rx="96" fill="#0b0f18"/>
  <path d="M256 74c-62 27-108 79-138 154 16 83 62 147 138 192 76-45 122-109 138-192C364 153 318 101 256 74Z" fill="#101722"/>
  <path d="M256 74c-62 27-108 79-138 154 16 83 62 147 138 192 76-45 122-109 138-192C364 153 318 101 256 74Z" fill="none" stroke="#f2a51f" stroke-width="28" stroke-linejoin="round"/>
  <path d="M142 366 64 424l136-28M370 366l78 58-136-28" fill="none" stroke="#f2a51f" stroke-width="28" stroke-linecap="round" stroke-linejoin="round"/>
  <path d="M171 269c36-14 65-11 87 8-41 17-71 14-87-8Zm170 0c-36-14-65-11-87 8 41 17 71 14 87-8Z" fill="#f2a51f"/>
  <path d="M256 378 284 416 256 454 228 416 256 378Z" fill="#f2a51f"/>
</svg>
